#define _width 128
#define _height 32
static char _bits[] = {
 0x00,0x00,0x00,0x00,0x00,0x00,0x00,0x00,0x00,0x00,0x00,0x00,0x00,0x00,0x00,
 0x00,0x00,0x00,0x00,0x00,0x02,0x00,0x00,0x00,0x00,0x00,0x00,0x00,0x00,0x00,
 0x00,0x00,0x00,0x00,0x00,0x00,0x00,0x00,0x00,0x00,0x00,0x00,0x00,0x00,0x00,
 0x00,0x00,0x00,0x00,0x00,0x00,0x00,0x00,0x00,0x00,0x00,0x00,0x00,0x00,0x00,
 0x00,0x00,0x00,0x00,0x00,0x00,0x00,0x00,0x00,0x00,0x00,0x00,0x00,0x00,0x00,
 0x00,0x00,0x00,0x00,0x00,0x00,0x00,0x00,0x00,0x00,0x00,0x00,0x00,0x00,0x00,
 0x00,0x00,0x00,0x00,0x00,0x00,0xff,0x00,0x7f,0x00,0xfc,0xff,0x01,0x00,0x00,
 0x00,0x00,0x00,0x04,0x00,0x00,0x00,0x80,0xff,0xc1,0x3f,0x02,0x00,0x03,0x00,
 0x00,0x00,0x00,0x00,0x04,0x00,0x00,0x00,0x00,0x00,0x00,0x00,0x01,0x00,0x04,
 0x00,0x00,0x00,0x00,0x00,0x1b,0x00,0x00,0x00,0x00,0x00,0x00,0x00,0x81,0x04,
 0x04,0x00,0x00,0x00,0x00,0x00,0x04,0x00,0x00,0x00,0x00,0x00,0x00,0x00,0x09,
 0x80,0x04,0x40,0x00,0x00,0x00,0x00,0x04,0x00,0x00,0x00,0xff,0x00,0x7f,0x00,
 0x01,0x0c,0x1c,0x00,0x00,0x00,0x00,0x00,0x00,0x00,0x00,0x00,0x80,0xff,0xc1,
 0x3c,0x01,0x12,0x24,0x00,0x00,0x00,0x00,0x00,0x00,0x00,0x00,0x00,0x00,0x00,
 0x00,0x64,0x41,0x22,0x22,0x08,0x02,0x00,0x00,0x00,0x00,0x00,0x00,0x00,0x00,
 0x00,0x00,0xcc,0x01,0xc2,0x21,0x00,0x00,0x00,0x00,0x00,0x00,0x00,0x00,0x00,
 0x00,0x00,0x00,0x98,0x11,0x02,0x20,0x00,0x00,0x00,0x00,0x00,0x00,0x00,0x00,
 0x00,0xff,0x00,0x7f,0x30,0x05,0x21,0x48,0x40,0x00,0x00,0x00,0x00,0x00,0x00,
 0x00,0x00,0x80,0xff,0xc1,0xe3,0x41,0x31,0x4d,0x00,0x00,0x00,0x00,0x00,0x00,
 0x00,0x00,0x00,0x00,0x00,0x00,0x80,0x01,0x01,0x40,0x00,0x00,0x00,0x00,0x00,
 0x00,0x00,0x00,0x00,0x00,0x00,0x00,0x00,0x09,0x21,0x45,0x00,0x00,0x00,0x00,
 0x00,0x00,0x00,0x20,0x00,0xff,0x00,0x7f,0x00,0x01,0xe2,0x27,0x00,0x00,0x00,
 0x00,0x00,0x00,0x00,0x20,0x00,0x80,0xff,0xc1,0x8f,0x03,0x04,0x10,0x00,0x00,
 0x00,0x00,0x00,0x00,0x00,0x00,0x00,0x00,0x00,0x00,0x40,0xfc,0xff,0x0f,0x00,
 0x00,0x00,0x00,0x00,0x00,0x00,0xac,0x01,0x00,0x00,0x00,0x40,0x4a,0x48,0x09,
 0x00,0x00,0x00,0x80,0x00,0x00,0x00,0x00,0x00,0x00,0x00,0x00,0xc0,0x3b,0x70,
 0x0e,0x00,0x00,0x00,0x20,0x02,0x00,0x00,0x20,0x00,0xff,0x00,0x7f,0x00,0x00,
 0x00,0x00,0x00,0x00,0x00,0x00,0x00,0x00,0x00,0x20,0x00,0x80,0xff,0xc1,0x1f,
 0x00,0x00,0x00,0x00,0x00,0x00,0x10,0x04,0x00,0x00,0x00,0x00,0x00,0x00,0x00,
 0x00,0x00,0x00,0x00,0x00,0x00,0x00,0x00,0x00,0x00,0x00,0x00,0x00,0x40,0x00,
 0x00,0x00,0x00,0x00,0x00,0x00,0x00,0x00,0x20,0x02,0x00,0x00,0x00,0x00,0xa0,
 0x00,0x00,0x00,0x00,0x00,0x00,0x00,0x00,0x00,0x80,0x00,0x00,0x00,0x00,0x00,
 0x40,0x00,0x00,0x00,0x00,0x00,0x00,0x00,0x00,0x00,0x00,0x00,0x00,0x00,0x00,
 0x00,0x00,0x00,0x00,0x00,0x00,0x00,0x00,0x00,0x00,0x00,0x00,0x00,0x00,0x00,
 0x00,0x00 };
