#define _width 128
#define _height 32
static char _bits[] = {
 0x00,0x00,0x00,0x20,0x00,0x00,0x00,0x00,0x00,0x00,0x00,0x00,0x00,0x00,0x00,
 0x00,0x00,0x00,0x00,0x50,0x00,0x00,0x00,0x00,0x00,0x00,0x00,0x00,0x00,0x00,
 0x00,0x00,0x00,0x00,0x00,0x20,0x00,0x00,0x00,0x00,0x00,0x00,0x00,0x00,0x00,
 0x00,0x00,0x00,0x00,0x00,0x00,0x00,0x00,0x00,0x00,0x00,0x00,0x00,0x00,0x00,
 0x00,0x00,0x00,0x00,0x00,0x00,0x00,0x00,0x00,0x00,0x00,0x00,0x00,0x00,0x00,
 0x00,0x00,0x00,0x00,0x00,0x00,0x00,0x00,0x00,0x00,0x00,0x00,0x00,0x00,0x00,
 0x00,0x40,0x00,0x00,0x00,0x00,0xff,0x00,0x7f,0x00,0xfc,0xff,0x01,0x00,0x00,
 0x00,0x00,0x40,0x00,0x00,0x00,0x00,0x80,0xff,0xc1,0x7f,0x02,0x00,0x03,0x00,
 0x00,0x00,0x00,0x00,0x00,0x00,0x00,0x00,0x00,0x00,0x00,0x00,0x01,0x00,0x04,
 0x00,0x00,0x00,0x00,0x58,0x03,0x00,0x00,0x00,0x00,0x00,0x00,0x00,0x81,0x04,
 0x04,0x00,0x00,0x00,0x00,0x00,0x00,0x00,0x00,0x00,0x00,0x00,0x00,0x00,0x09,
 0x80,0x04,0x04,0x00,0x00,0x00,0x40,0x00,0x00,0x00,0x00,0xff,0x00,0x7f,0x00,
 0x01,0x18,0x34,0x11,0x00,0x00,0x00,0x40,0x00,0x00,0x00,0x00,0x80,0xff,0xc1,
 0x01,0x01,0x24,0x4c,0x00,0x00,0x00,0x00,0x00,0x00,0x00,0x00,0x00,0x00,0x00,
 0x00,0x18,0x41,0x44,0xc4,0x20,0x00,0x00,0x00,0x00,0x00,0x00,0x00,0x00,0x00,
 0x00,0x00,0x24,0x01,0x84,0x43,0x00,0x00,0x00,0x00,0x00,0x00,0x00,0x00,0x00,
 0x00,0x00,0x00,0xe4,0x11,0x04,0x40,0x11,0x00,0x00,0x00,0x00,0x00,0x00,0x00,
 0x00,0xff,0x00,0x7f,0x08,0x05,0x42,0x90,0x04,0x00,0x00,0x00,0x00,0x00,0x00,
 0x00,0x00,0x80,0xff,0xc1,0x39,0x41,0x62,0x9a,0x00,0x00,0x00,0x00,0x00,0x00,
 0x00,0x00,0x00,0x00,0x00,0x00,0xc0,0x01,0x02,0x80,0x00,0x00,0x00,0x00,0x00,
 0x00,0x00,0x00,0x00,0x00,0x00,0x00,0x00,0x09,0x42,0x8a,0x00,0x00,0x00,0x00,
 0x00,0x00,0x00,0x02,0x00,0xff,0x00,0x7f,0x00,0x01,0xc4,0x4f,0x00,0x00,0x00,
 0x00,0x00,0x00,0x00,0x00,0x00,0x80,0xff,0xc1,0x9f,0x03,0x08,0x20,0x00,0x00,
 0x00,0x00,0x00,0x00,0x00,0x00,0x00,0x00,0x00,0x00,0x80,0xfc,0xff,0x1f,0x00,
 0x00,0x00,0x00,0x00,0x00,0x40,0x10,0x00,0x00,0x00,0x00,0x80,0x54,0x90,0x12,
 0x00,0x00,0x00,0x00,0x00,0x00,0x00,0x00,0x00,0x00,0x00,0x00,0x80,0x63,0x60,
 0x0c,0x00,0x00,0x00,0x00,0x00,0x00,0x00,0x00,0x00,0xff,0x00,0x7f,0x10,0x00,
 0x00,0x00,0x00,0x00,0x00,0x00,0x00,0x00,0x00,0x02,0x00,0x80,0xff,0xc1,0x1f,
 0x00,0x00,0x00,0x00,0x00,0x00,0x08,0x00,0x00,0x00,0x00,0x00,0x04,0x00,0x00,
 0x00,0x00,0x00,0x00,0x00,0x00,0x00,0x00,0x00,0x00,0x00,0x00,0x00,0x04,0x00,
 0x00,0x00,0x00,0x00,0x00,0x00,0x00,0x00,0x00,0x00,0x00,0x00,0x00,0x00,0x1b,
 0x00,0x00,0x00,0x00,0x00,0x00,0x00,0x00,0x00,0x00,0x00,0x00,0x00,0x00,0x00,
 0x04,0x00,0x00,0x00,0x00,0x00,0x00,0x00,0x00,0x00,0x00,0x00,0x00,0x00,0x00,
 0x00,0x04,0x00,0x00,0x00,0x00,0x00,0x00,0x00,0x00,0x00,0x00,0x00,0x00,0x00,
 0x00,0x00 };
