#define _width 128
#define _height 32
static char _bits[] = {
 0x00,0x00,0x00,0x00,0x00,0x00,0x00,0x00,0x00,0x00,0x00,0x00,0x00,0x00,0x00,
 0x00,0x00,0x40,0x12,0x00,0x00,0x00,0x00,0x00,0x00,0x00,0x00,0x00,0x00,0x00,
 0x00,0x00,0x00,0x00,0x00,0x00,0x00,0x00,0x00,0x00,0x00,0x00,0x00,0x00,0x00,
 0x00,0x00,0x00,0x00,0x00,0x00,0x00,0x00,0x00,0x00,0x00,0x00,0x00,0x00,0x00,
 0x00,0x00,0x00,0x00,0x00,0x00,0x02,0x00,0x00,0x00,0x00,0x00,0x00,0x00,0x00,
 0x00,0x00,0x00,0x00,0x00,0x00,0x00,0x00,0x00,0x00,0x00,0x00,0x00,0x00,0x00,
 0x00,0x00,0x00,0x00,0x00,0x00,0xff,0x00,0x7f,0x00,0x00,0x00,0x00,0x00,0x00,
 0x00,0x00,0x00,0x00,0x00,0x00,0x00,0x80,0xff,0xc1,0x3f,0xfc,0xff,0x01,0x00,
 0x00,0x00,0x04,0x00,0x00,0x00,0x00,0x00,0x00,0x00,0x00,0x00,0x02,0x00,0x03,
 0x00,0x00,0x00,0x0a,0x00,0x00,0x00,0x00,0x00,0x00,0x00,0x00,0x00,0x01,0x00,
 0x04,0x00,0x00,0x00,0x04,0x00,0x00,0x00,0x00,0x08,0x00,0x00,0x00,0x00,0x81,
 0x04,0x04,0x00,0x00,0x00,0x00,0x00,0x00,0x00,0x00,0x08,0xff,0x00,0x7f,0x00,
 0x09,0x80,0x04,0x00,0x00,0x00,0x00,0x00,0x00,0x00,0x00,0x00,0x80,0xff,0xc1,
 0x3f,0x01,0x0c,0x1c,0x00,0x00,0x00,0x00,0x00,0x00,0x00,0x00,0x6b,0x00,0x00,
 0x00,0x00,0x01,0x12,0x24,0x00,0x00,0x00,0x00,0x00,0x00,0x00,0x00,0x00,0x00,
 0x00,0x00,0x00,0x41,0x22,0x22,0x00,0x00,0x00,0x00,0x00,0x00,0x00,0x00,0x08,
 0x00,0x00,0x00,0x38,0x01,0xc2,0x21,0x00,0x00,0x00,0x00,0x00,0x00,0x00,0x00,
 0x08,0xff,0x00,0x7f,0xe4,0x11,0x02,0x20,0x00,0x00,0x00,0x00,0x00,0x00,0x00,
 0x00,0x00,0x80,0xff,0xc1,0x8c,0x05,0x21,0x48,0x00,0x00,0x00,0x00,0x00,0x00,
 0x00,0x00,0x00,0x00,0x00,0x00,0x70,0x41,0x31,0x4d,0x00,0x00,0x00,0x00,0x00,
 0x00,0x00,0x00,0x00,0x00,0x00,0x00,0xc0,0x01,0x01,0x40,0x00,0x00,0x00,0x00,
 0x00,0x00,0x00,0x00,0x00,0xff,0x00,0x7f,0x00,0x09,0x21,0x45,0x00,0x00,0x00,
 0x00,0x00,0x20,0x00,0x00,0x00,0x80,0xff,0xc1,0x07,0x01,0xe2,0x27,0x00,0x00,
 0x00,0x00,0x00,0x20,0x00,0x00,0x00,0x00,0x00,0x00,0x80,0x03,0x04,0x10,0x00,
 0x00,0x00,0x00,0x00,0xd8,0x00,0x00,0x00,0x00,0x00,0x00,0x40,0xfc,0xff,0x0f,
 0x00,0x80,0x00,0x00,0x00,0x20,0x00,0x00,0x00,0x00,0x00,0x00,0x40,0x4a,0xa4,
 0x04,0x00,0x80,0x00,0x00,0x00,0x20,0x00,0x00,0x00,0xff,0x00,0x7f,0xc0,0x3b,
 0x38,0x07,0x00,0x00,0x00,0x00,0x00,0x00,0x00,0x00,0x00,0x80,0xff,0xc1,0x0f,
 0x00,0x00,0x00,0x00,0xb0,0x06,0x00,0x00,0x00,0x00,0x00,0x00,0x00,0x00,0x00,
 0x00,0x00,0x00,0x00,0x00,0x00,0x00,0x00,0x00,0x00,0x00,0x00,0x00,0x00,0x00,
 0x00,0x00,0x00,0x00,0x00,0x00,0x80,0x00,0x00,0x00,0x00,0x00,0x00,0x00,0x00,
 0x00,0x00,0x00,0x00,0x00,0x00,0x00,0x80,0x00,0x00,0x00,0x00,0x00,0x00,0x00,
 0x00,0x00,0x00,0x00,0x00,0x00,0x00,0x00,0x00,0x00,0x00,0x00,0x00,0x00,0x00,
 0x00,0x00,0x00,0x00,0x00,0x00,0x00,0x00,0x00,0x00,0x00,0x00,0x00,0x00,0x00,
 0x00,0x00 };
