#define _width 128
#define _height 32
static char _bits[] = {
 0x00,0x00,0x00,0x00,0x00,0x00,0x00,0x00,0x00,0x00,0x00,0x00,0x00,0x00,0x00,
 0x00,0x00,0x04,0x01,0x00,0x00,0x00,0x00,0x00,0x00,0x00,0x00,0x00,0x00,0x00,
 0x00,0x00,0x00,0x00,0x00,0x00,0x00,0x00,0x00,0x00,0x00,0x00,0x00,0x00,0x00,
 0x00,0x00,0x00,0x00,0x88,0x00,0x00,0x00,0x00,0x00,0x00,0x00,0x00,0x00,0x00,
 0x00,0x00,0x00,0x00,0x00,0x20,0x00,0x00,0x00,0x00,0x00,0x00,0x00,0x00,0x00,
 0x00,0x00,0x00,0x00,0x00,0x00,0x00,0x00,0x00,0x00,0x00,0x00,0x00,0x00,0x00,
 0x00,0x00,0x00,0x00,0x00,0x00,0xff,0x00,0x7f,0x00,0x00,0x00,0x00,0x00,0x00,
 0x40,0x00,0x00,0x00,0x00,0x00,0x00,0x80,0xff,0xc1,0x3f,0xfc,0xff,0x01,0x00,
 0x00,0x40,0x00,0x00,0x00,0x00,0x00,0x00,0x00,0x00,0x00,0x00,0x02,0x00,0x03,
 0x00,0x00,0xb0,0x01,0x00,0x00,0x00,0x00,0x00,0x00,0x00,0x00,0x00,0x01,0x00,
 0x04,0x00,0x00,0x40,0x00,0x00,0x00,0x00,0x80,0x00,0x00,0x00,0x00,0x00,0x81,
 0x04,0x14,0x00,0x00,0x40,0x00,0x00,0x00,0x00,0x20,0x02,0xff,0x00,0x7f,0x00,
 0x09,0x8c,0x1c,0x00,0x00,0x00,0x00,0x00,0x00,0x00,0x00,0x00,0x80,0xff,0xc1,
 0x03,0x01,0x12,0x24,0x00,0x00,0x00,0x00,0x00,0x00,0x00,0x90,0x04,0x00,0x00,
 0x00,0x00,0x01,0x22,0x22,0x00,0x00,0x00,0x00,0x00,0x00,0x00,0x00,0x00,0x00,
 0x00,0x00,0x18,0x41,0xc2,0x21,0x00,0x00,0x00,0x00,0x00,0x00,0x00,0x20,0x02,
 0x00,0x00,0x00,0x24,0x01,0x02,0x20,0x00,0x00,0x00,0x00,0x00,0x00,0x00,0x80,
 0x00,0xff,0x00,0x7f,0xe4,0x11,0x21,0x48,0x00,0x00,0x00,0x00,0x00,0x00,0x00,
 0x00,0x00,0x80,0xff,0xc1,0x08,0x05,0x31,0x4d,0x00,0x00,0x00,0x00,0x00,0x00,
 0x00,0x00,0x00,0x00,0x00,0x00,0x30,0x41,0x01,0x40,0x00,0x00,0x00,0x00,0x00,
 0x00,0x00,0x00,0x00,0x00,0x00,0x00,0xc0,0x01,0x21,0x45,0x00,0x00,0x00,0x00,
 0x00,0x02,0x00,0x00,0x00,0xff,0x00,0x7f,0x00,0x09,0xe2,0x27,0x00,0x00,0x00,
 0x00,0x00,0x02,0x00,0x00,0x00,0x80,0xff,0xc1,0x0f,0x01,0x04,0x10,0x00,0x00,
 0x00,0x00,0x00,0x00,0x00,0x00,0x00,0x00,0x00,0x00,0x80,0x03,0xf8,0x0f,0x00,
 0x00,0x00,0x00,0xc0,0x1a,0x00,0x00,0x00,0x00,0x00,0x00,0x40,0xfc,0xff,0x01,
 0x00,0x08,0x00,0x00,0x00,0x00,0x00,0x00,0x00,0x00,0x00,0x00,0x40,0x4a,0xa4,
 0x04,0x00,0x22,0x00,0x00,0x00,0x02,0x00,0x00,0x00,0xff,0x00,0x7f,0xc0,0x3b,
 0x38,0x07,0x00,0x00,0x00,0x00,0x00,0x02,0x00,0x00,0x00,0x80,0xff,0xc1,0x1f,
 0x00,0x00,0x00,0x00,0x49,0x00,0x00,0x00,0x00,0x00,0x00,0x00,0x00,0x00,0x00,
 0x00,0x00,0x00,0x00,0x00,0x00,0x00,0x00,0x00,0x00,0x00,0x00,0x00,0x00,0x00,
 0x00,0x00,0x00,0x00,0x00,0x00,0x22,0x00,0x00,0x00,0x00,0x00,0x00,0x00,0x00,
 0x00,0x00,0x00,0x00,0x00,0x00,0x00,0x08,0x00,0x00,0x00,0x00,0x00,0x00,0x00,
 0x00,0x00,0x00,0x00,0x00,0x00,0x00,0x00,0x00,0x00,0x00,0x00,0x00,0x00,0x00,
 0x00,0x00,0x00,0x00,0x00,0x00,0x00,0x00,0x00,0x00,0x00,0x00,0x00,0x00,0x00,
 0x00,0x00 };
